<svg width="718" height="710" viewBox="0 0 718 710" fill="none" xmlns="http://www.w3.org/2000/svg">
<path fill-rule="evenodd" clip-rule="evenodd" d="M359.965 0.0654138C381.54 0.270924 394.485 0.887454 403.114 2.01776C409.895 2.94255 421.196 4.8949 428.285 6.33347C435.373 7.77204 447.599 10.8547 455.51 13.1153C463.42 15.3759 475.44 19.2806 482.221 21.8495C489.002 24.3156 503.796 30.9947 515.097 36.5435C526.398 42.0922 541.397 50.2099 548.486 54.7311C555.575 59.1496 566.67 66.7534 573.142 71.6857C579.615 76.5152 590.094 84.8383 596.258 90.1816C602.422 95.5248 612.798 105.389 619.271 112.171C625.64 118.85 634.27 128.612 638.38 133.647C642.489 138.682 648.448 146.594 651.735 151.115C654.92 155.637 660.16 163.549 663.345 168.584C666.427 173.619 671.769 182.867 675.159 189.135C678.549 195.403 683.994 206.5 687.179 213.796C690.467 221.091 695.501 234.141 698.378 242.567C701.357 251.096 705.364 264.043 707.213 271.339C709.062 278.634 711.836 291.89 713.274 300.624C714.713 309.358 716.356 322.613 716.973 329.909C717.589 337.205 718 350.255 718 358.68C718 367.209 717.281 381.287 716.459 390.021C715.637 398.755 714.096 411.291 712.966 417.765C711.836 424.238 709.576 435.13 707.829 441.912C706.185 448.694 703.514 458.147 701.973 462.977C700.535 467.806 697.145 477.054 694.679 483.528C692.111 490.001 687.179 501.407 683.686 508.703C680.193 515.998 674.337 527.199 670.742 533.364C667.248 539.529 661.187 549.291 657.386 554.943C653.585 560.594 645.674 571.281 639.818 578.576C633.962 585.872 622.25 598.922 613.723 607.348C605.299 615.876 593.176 626.871 587.012 631.803C580.848 636.736 570.369 644.442 563.896 648.861C557.424 653.279 546.945 659.855 540.781 663.452C534.616 666.946 524.343 672.289 518.179 675.269C512.014 678.146 501.124 682.873 494.036 685.75C486.947 688.627 474.927 692.84 467.324 695.1C459.722 697.464 445.647 700.958 435.99 702.91C426.333 704.862 411.847 707.226 403.628 708.253C393.252 709.486 381.129 710 363.561 710C349.692 710 333.357 709.383 327.09 708.664C320.823 708.048 309.111 706.301 300.892 704.862C292.673 703.526 279.318 700.546 271.099 698.286C262.88 696.128 249.935 692.121 242.333 689.449C234.73 686.777 223.121 682.359 216.649 679.584C210.176 676.81 199.081 671.467 191.992 667.768C184.903 664.068 173.602 657.492 166.822 653.279C160.041 648.963 149.151 641.462 142.679 636.53C136.206 631.701 126.241 623.583 120.591 618.548C114.94 613.513 106.618 605.704 102.201 601.182C97.6805 596.661 90.5917 589.057 86.3795 584.228C82.1673 579.398 73.8457 569.02 67.9898 561.108C62.0311 553.196 54.6341 542.612 51.4493 537.474C48.3672 532.336 43.1277 523.397 39.8401 517.437C36.5526 511.477 31.3131 500.585 28.1282 493.29C24.9434 485.994 20.2176 473.869 17.7519 466.573C15.1835 459.278 11.6905 447.666 10.0467 440.885C8.3002 434.103 5.83454 422.08 4.49897 414.168C3.1634 406.256 1.51963 392.795 0.800478 384.369C0.0813261 374.71 -0.226882 360.53 0.184062 346.35C0.595006 333.917 1.51963 318.709 2.34152 312.441C3.1634 306.173 4.80718 295.794 6.04001 289.321C7.27284 282.847 9.12209 273.805 10.2522 269.284C11.3823 264.762 14.1561 255.001 16.5191 247.705C18.7793 240.409 22.4778 229.723 24.738 224.071C26.9981 218.42 31.2103 208.761 34.1897 202.493C37.169 196.225 42.5113 186.155 46.0043 179.887C49.6 173.619 56.1751 163.24 60.5928 156.767C65.0104 150.293 72.6129 139.915 77.5442 133.647C82.5783 127.379 94.4956 114.432 104.153 104.773C113.707 95.1138 126.241 83.5025 131.892 79.084C137.542 74.5628 146.788 67.6782 152.439 63.6708C158.089 59.6633 167.13 53.7035 172.472 50.4154C177.815 47.1272 189.424 40.9619 198.156 36.5435C206.889 32.125 219.423 26.4735 225.895 23.9046C232.367 21.3357 243.052 17.6365 249.524 15.4787C255.997 13.4236 266.681 10.4437 273.153 8.79959C279.626 7.25827 291.235 4.8949 298.837 3.7646C306.44 2.53153 316.405 1.09296 320.926 0.579189C325.446 0.168169 343.014 -0.140096 359.965 0.0654138V0.0654138ZM329.658 72.6105C324.316 73.1242 314.145 74.8711 307.056 76.2069C299.968 77.6455 287.228 81.1391 278.804 83.9135C270.38 86.7907 257.846 91.7229 251.065 95.0111C244.285 98.1965 234.525 103.334 229.491 106.417C224.457 109.5 216.649 114.74 212.231 117.925C207.916 121.214 200.108 127.687 194.869 132.414C189.629 137.038 181.924 145.053 177.712 150.088C173.5 155.123 167.644 163.035 164.664 167.556C161.685 172.077 156.754 181.12 153.569 187.593C150.487 194.067 146.48 203.623 144.836 208.658C143.192 213.693 140.521 223.66 139.083 230.75C136.823 241.129 136.206 247.397 135.795 263.632C135.385 276.476 135.693 287.368 136.412 293.945C137.131 299.596 138.878 309.564 140.316 316.037C141.651 322.511 144.528 332.889 146.48 339.157C148.535 345.425 152.028 354.879 154.288 360.222C156.445 365.565 160.144 373.683 162.507 378.204C164.767 382.725 169.185 390.535 172.267 395.672C175.452 400.81 181.205 409.339 185.109 414.682C189.013 420.025 198.773 430.917 206.786 438.829C214.697 446.844 225.689 456.606 231.032 460.613C236.374 464.518 245.62 470.786 251.579 474.28C257.538 477.876 267.708 483.322 274.181 486.405C280.653 489.488 292.057 494.009 299.351 496.475C306.645 498.941 318.46 502.127 325.549 503.565C336.028 505.826 342.192 506.442 358.938 506.853C372.294 507.264 382.67 506.956 388.731 506.134C393.868 505.517 401.882 503.771 406.71 502.435C411.539 500.996 418.628 498.325 422.634 496.372C426.641 494.42 432.086 491.132 434.963 488.974C437.736 486.816 442.257 482.295 444.928 478.904C447.702 475.513 451.092 469.759 452.633 466.059C454.688 460.922 455.407 457.017 455.818 449.105C456.126 442.734 455.818 436.466 454.996 432.664C454.277 429.273 452.119 423.519 450.27 419.82C448.215 415.504 444.825 411.086 440.921 407.489C437.634 404.406 432.086 400.399 428.798 398.652C425.408 396.803 420.271 394.542 417.497 393.617C414.621 392.692 410.306 391.459 407.738 390.843C405.169 390.329 381.643 389.404 355.342 388.993C312.501 388.274 306.543 387.966 297.81 386.116C292.468 384.883 284.352 382.725 279.831 381.184C275.311 379.745 267.708 376.56 262.88 374.299C258.051 371.936 250.654 367.517 246.442 364.538C242.23 361.455 234.936 355.29 230.21 350.666C225.587 346.042 219.525 339.054 216.751 335.047C213.978 331.039 209.971 324.36 207.608 320.147C205.348 315.934 202.06 308.228 200.314 303.193C198.67 298.158 196.512 289.732 195.588 284.697C194.766 279.662 194.047 270.106 194.047 263.632C194.047 257.159 194.766 247.397 195.588 242.054C196.512 236.71 198.875 227.462 200.827 221.503C202.779 215.543 206.375 207.014 208.738 202.493C211.204 197.972 215.724 190.779 218.909 186.566C222.094 182.353 229.182 174.441 234.73 169.097C240.381 163.651 249.319 156.356 254.661 152.862C260.003 149.266 269.044 144.128 274.694 141.456C280.345 138.682 288.872 135.086 293.701 133.339C298.529 131.695 306.337 129.331 311.166 128.201C315.994 127.071 324.727 125.427 330.686 124.502C336.644 123.577 347.945 122.652 355.856 122.241C364.383 121.83 376.3 122.036 385.136 122.755C393.354 123.474 405.375 124.913 411.847 126.043C418.319 127.173 429.004 129.434 435.476 131.181C441.949 132.928 453.763 136.832 461.674 140.018C469.585 143.1 481.81 148.649 488.899 152.246C495.988 155.945 508.213 163.24 516.124 168.584C524.035 173.824 535.13 182.045 540.781 186.771C546.431 191.498 555.883 200.129 561.841 206.089C567.8 212.049 576.738 222.222 581.772 228.695C586.704 235.169 593.998 245.547 597.902 251.815C601.806 258.083 607.97 268.873 611.566 275.963C615.161 283.053 619.99 293.431 622.25 299.083C624.51 304.734 627.798 313.982 629.647 319.634C631.394 325.285 634.065 334.944 635.4 341.212C636.839 347.48 638.893 358.269 639.921 365.36C641.051 372.45 642.284 383.342 642.695 389.507C643.311 399.885 643.516 400.399 644.236 395.672C644.647 392.898 645.469 382.725 646.188 373.066C646.804 363.407 647.01 350.768 646.599 344.809C646.29 338.849 645.571 329.395 644.955 323.744C644.338 318.092 642.797 307.714 641.359 300.624C640.023 293.534 637.147 282.025 635.195 274.935C633.14 267.845 629.442 256.747 626.873 250.274C624.305 243.8 619.271 232.6 615.675 225.407C612.079 218.112 606.429 207.939 603.244 202.801C599.956 197.561 593.381 187.902 588.45 181.428C583.519 174.954 575.813 165.707 571.396 160.98C566.978 156.253 558.759 148.341 553.109 143.511C547.458 138.579 539.856 132.208 536.157 129.331C532.459 126.454 524.137 120.7 517.665 116.384C511.193 112.171 501.433 106.417 496.09 103.54C490.748 100.663 482.427 96.6551 477.598 94.6C472.769 92.4422 464.448 89.154 459.105 87.2017C453.763 85.2493 443.079 82.0639 435.476 80.1116C427.874 78.1592 416.059 75.5904 409.279 74.5628C402.498 73.4325 390.067 72.0967 381.54 71.4802C373.116 70.9664 362.431 70.5554 357.911 70.6581C353.39 70.7609 347.432 70.9664 344.555 71.1719C341.781 71.2746 335 71.9939 329.658 72.6105V72.6105ZM331.199 203.007C324.727 204.651 315.07 208.144 309.933 210.713C304.693 213.282 297.502 217.598 294.009 220.475C290.413 223.249 285.893 227.771 283.838 230.545C281.886 233.217 279.112 237.841 277.674 240.82C276.338 243.698 274.694 249.76 273.975 254.179C273.051 260.344 273.051 263.735 273.975 269.284C274.694 273.291 276.441 279.045 277.982 282.128C279.523 285.416 283.633 290.657 287.434 294.561C291.851 298.877 296.577 302.473 300.892 304.529C304.591 306.275 310.344 308.536 313.734 309.461C318.768 310.899 328.014 311.31 363.047 312.03C392.122 312.543 410.1 313.366 418.011 314.393C424.483 315.318 434.963 317.373 441.127 319.017C447.291 320.764 456.332 323.744 461.16 325.799C465.989 327.854 472.872 331.348 476.571 333.505C480.269 335.561 487.152 340.596 491.981 344.5C496.81 348.508 503.487 355.084 506.98 359.297C510.371 363.51 514.788 369.264 516.638 372.039C518.59 374.916 522.083 381.287 524.446 386.424C526.911 391.562 529.993 399.782 531.534 404.92C532.973 410.058 534.719 417.354 535.336 421.361C536.055 425.368 536.568 435.233 536.568 443.453C536.466 452.701 535.849 462.052 534.719 468.115C533.795 473.458 531.432 482.5 529.582 488.152C527.63 493.803 524.24 502.127 521.98 506.648C519.72 511.169 515.405 518.362 512.425 522.575C509.549 526.788 503.076 534.186 498.248 539.016C493.419 543.845 484.789 550.832 479.139 554.634C473.489 558.436 464.961 563.368 460.133 565.526C455.304 567.787 446.572 571.281 440.613 573.336C434.654 575.288 424.073 578.063 416.984 579.501C409.895 580.94 398.799 582.584 392.327 583.303C384.93 584.022 373.526 584.331 362.02 583.92C351.849 583.611 338.699 582.584 332.74 581.659C326.782 580.837 315.275 578.371 307.056 576.418C298.837 574.363 287.126 570.87 280.859 568.609C274.592 566.348 263.291 561.519 255.688 557.82C248.086 554.223 235.86 547.647 228.566 543.331C221.272 539.016 209.971 531.309 203.396 526.377C196.821 521.444 185.725 512.197 178.636 505.826C171.548 499.455 161.685 489.59 156.651 484.042C151.617 478.39 144.425 469.861 140.727 465.032C137.028 460.305 130.042 450.543 125.316 443.453C120.591 436.363 113.194 423.416 108.879 414.682C104.564 405.948 98.8106 392.692 96.0367 385.397C93.3656 378.101 89.8725 367.004 88.2288 360.736C86.585 354.468 84.5303 345.939 83.7084 341.726C82.8865 337.513 81.4482 328.162 80.6263 320.969C79.7017 313.674 78.9825 305.145 78.9825 301.96C78.9825 298.672 78.777 296.205 78.5716 296.514C78.2634 296.822 77.5442 300.727 76.9278 305.248C76.3114 309.769 75.4895 320.867 74.9758 329.909C74.4621 339.671 74.4621 352.618 75.0786 361.763C75.5922 370.292 76.8251 382.725 77.9552 389.507C78.9825 396.289 81.5509 408.106 83.5029 415.71C85.4549 423.313 88.4342 433.486 90.1807 438.316C91.8245 443.145 95.523 452.188 98.1941 458.353C100.968 464.518 105.797 474.28 108.981 479.931C112.166 485.583 117.406 494.112 120.591 498.941C123.878 503.771 130.248 512.505 134.871 518.465C139.391 524.424 151.309 537.371 161.171 547.236C171.034 557.1 183.979 568.917 189.937 573.541C195.896 578.062 203.704 583.919 207.402 586.386C211.101 588.954 217.984 593.373 222.813 596.25C227.641 599.127 236.374 603.854 242.333 606.834C248.291 609.814 259.387 614.746 266.989 617.829C274.592 620.911 285.482 624.713 291.132 626.357C296.783 628.001 306.029 630.365 311.679 631.495C317.33 632.728 326.987 634.372 333.254 635.194C339.521 636.016 353.39 637.044 364.075 637.352C378.15 637.763 387.807 637.455 398.491 636.325C406.71 635.4 419.449 633.447 426.744 632.009C434.038 630.468 443.798 628.104 448.318 626.666C452.839 625.227 461.16 622.247 466.811 619.987C472.461 617.726 481.707 613.513 487.358 610.636C493.008 607.656 501.124 603.032 505.337 600.258C509.549 597.483 516.74 592.345 521.261 588.852C525.781 585.358 534.308 577.446 540.164 571.281C546.226 564.91 554.034 555.251 558.348 548.777C562.458 542.612 568.417 532.131 571.499 525.657C574.581 519.184 578.793 509.011 580.745 503.051C582.697 497.092 585.471 486.508 586.909 479.418C588.347 472.328 590.094 461.744 590.71 455.784C591.429 449.208 591.635 436.877 591.327 424.444C591.018 412.627 590.094 399.988 589.169 394.645C588.245 389.507 586.087 379.643 584.341 372.552C582.594 365.462 579.307 354.673 577.046 348.405C574.786 342.137 570.574 332.272 567.8 326.313C565.026 320.353 560.609 311.824 558.04 307.303C555.472 302.782 549.616 293.739 544.993 287.266C539.959 280.073 531.637 270.414 523.829 262.502C516.74 255.412 506.569 246.266 501.227 242.156C495.885 238.046 486.331 231.573 480.166 227.873C474.002 224.174 464.037 218.934 458.078 216.262C452.119 213.59 442.668 209.994 437.017 208.144C431.367 206.398 422.737 204.034 417.806 202.904C412.772 201.876 402.909 200.232 395.717 199.41C388.423 198.588 377.225 197.972 370.753 197.972C364.28 198.074 355.342 198.588 351.027 198.999C346.61 199.513 337.672 201.363 331.199 203.007V203.007Z" fill="#F5AFAF" fill-opacity="0.99"/>
</svg>
